<mxfile host="app.diagrams.net" modified="2024-06-22T14:42:07.943Z" agent="Mozilla/5.0 (Windows NT 10.0; Win64; x64) AppleWebKit/537.36 (KHTML, like Gecko) Chrome/99.0.4844.84 Safari/537.36 HBPC/12.1.3.303" etag="8WoWSv7RHFthxflMUEU6" version="24.6.2" type="device">
  <diagram id="R2lEEEUBdFMjLlhIrx00" name="Page-1">
    <mxGraphModel dx="1014" dy="684" grid="1" gridSize="10" guides="1" tooltips="1" connect="1" arrows="1" fold="1" page="1" pageScale="1" pageWidth="850" pageHeight="1100" math="0" shadow="0" extFonts="Permanent Marker^https://fonts.googleapis.com/css?family=Permanent+Marker">
      <root>
        <mxCell id="0" />
        <mxCell id="1" parent="0" />
        <mxCell id="Bh2odM-sxEUb7IFI-Dxi-2" value="" style="group" vertex="1" connectable="0" parent="1">
          <mxGeometry x="480" y="100" width="250" height="220" as="geometry" />
        </mxCell>
        <mxCell id="4BMQe9FEXwNOjTHVbdON-18" value="ROOM" style="shape=table;startSize=30;container=1;collapsible=1;childLayout=tableLayout;fixedRows=1;rowLines=0;fontStyle=1;align=center;resizeLast=1;" parent="Bh2odM-sxEUb7IFI-Dxi-2" vertex="1">
          <mxGeometry width="250" height="220" as="geometry" />
        </mxCell>
        <mxCell id="4BMQe9FEXwNOjTHVbdON-19" value="" style="shape=partialRectangle;collapsible=0;dropTarget=0;pointerEvents=0;fillColor=none;points=[[0,0.5],[1,0.5]];portConstraint=eastwest;top=0;left=0;right=0;bottom=1;" parent="4BMQe9FEXwNOjTHVbdON-18" vertex="1">
          <mxGeometry y="30" width="250" height="30" as="geometry" />
        </mxCell>
        <mxCell id="4BMQe9FEXwNOjTHVbdON-20" value="PK" style="shape=partialRectangle;overflow=hidden;connectable=0;fillColor=none;top=0;left=0;bottom=0;right=0;fontStyle=1;" parent="4BMQe9FEXwNOjTHVbdON-19" vertex="1">
          <mxGeometry width="30" height="30" as="geometry">
            <mxRectangle width="30" height="30" as="alternateBounds" />
          </mxGeometry>
        </mxCell>
        <mxCell id="4BMQe9FEXwNOjTHVbdON-21" value="ROOMNAME VARCHAR(255)" style="shape=partialRectangle;overflow=hidden;connectable=0;fillColor=none;top=0;left=0;bottom=0;right=0;align=left;spacingLeft=6;fontStyle=5;" parent="4BMQe9FEXwNOjTHVbdON-19" vertex="1">
          <mxGeometry x="30" width="220" height="30" as="geometry">
            <mxRectangle width="220" height="30" as="alternateBounds" />
          </mxGeometry>
        </mxCell>
        <mxCell id="4BMQe9FEXwNOjTHVbdON-22" value="" style="shape=partialRectangle;collapsible=0;dropTarget=0;pointerEvents=0;fillColor=none;points=[[0,0.5],[1,0.5]];portConstraint=eastwest;top=0;left=0;right=0;bottom=0;" parent="4BMQe9FEXwNOjTHVbdON-18" vertex="1">
          <mxGeometry y="60" width="250" height="30" as="geometry" />
        </mxCell>
        <mxCell id="4BMQe9FEXwNOjTHVbdON-23" value="" style="shape=partialRectangle;overflow=hidden;connectable=0;fillColor=none;top=0;left=0;bottom=0;right=0;" parent="4BMQe9FEXwNOjTHVbdON-22" vertex="1">
          <mxGeometry width="30" height="30" as="geometry">
            <mxRectangle width="30" height="30" as="alternateBounds" />
          </mxGeometry>
        </mxCell>
        <mxCell id="4BMQe9FEXwNOjTHVbdON-24" value="ROOM_OWER_ID VARCHAR(255)" style="shape=partialRectangle;overflow=hidden;connectable=0;fillColor=none;top=0;left=0;bottom=0;right=0;align=left;spacingLeft=6;" parent="4BMQe9FEXwNOjTHVbdON-22" vertex="1">
          <mxGeometry x="30" width="220" height="30" as="geometry">
            <mxRectangle width="220" height="30" as="alternateBounds" />
          </mxGeometry>
        </mxCell>
        <mxCell id="4BMQe9FEXwNOjTHVbdON-25" value="ROOMPIC VARCHAR(255)" style="shape=partialRectangle;overflow=hidden;connectable=0;fillColor=none;top=0;left=0;bottom=0;right=0;align=left;spacingLeft=6;" parent="Bh2odM-sxEUb7IFI-Dxi-2" vertex="1">
          <mxGeometry x="30" y="90" width="220" height="30" as="geometry" />
        </mxCell>
        <mxCell id="4BMQe9FEXwNOjTHVbdON-26" value="" style="endArrow=none;html=1;rounded=0;entryX=0.117;entryY=0.943;entryDx=0;entryDy=0;entryPerimeter=0;" parent="Bh2odM-sxEUb7IFI-Dxi-2" target="4BMQe9FEXwNOjTHVbdON-22" edge="1">
          <mxGeometry width="50" height="50" relative="1" as="geometry">
            <mxPoint x="29" y="220" as="sourcePoint" />
            <mxPoint x="230" y="140" as="targetPoint" />
          </mxGeometry>
        </mxCell>
        <mxCell id="4BMQe9FEXwNOjTHVbdON-27" value="NUMOFPEOPLE INT" style="shape=partialRectangle;overflow=hidden;connectable=0;fillColor=none;top=0;left=0;bottom=0;right=0;align=left;spacingLeft=6;" parent="Bh2odM-sxEUb7IFI-Dxi-2" vertex="1">
          <mxGeometry x="30" y="120" width="220" height="30" as="geometry" />
        </mxCell>
        <mxCell id="4BMQe9FEXwNOjTHVbdON-28" value="PASS_WORD VARCHAR(255)" style="shape=partialRectangle;overflow=hidden;connectable=0;fillColor=none;top=0;left=0;bottom=0;right=0;align=left;spacingLeft=6;" parent="Bh2odM-sxEUb7IFI-Dxi-2" vertex="1">
          <mxGeometry x="30" y="150" width="220" height="30" as="geometry" />
        </mxCell>
        <mxCell id="4BMQe9FEXwNOjTHVbdON-29" value="MEMBERS_ID VARCHAR(255)" style="shape=partialRectangle;overflow=hidden;connectable=0;fillColor=none;top=0;left=0;bottom=0;right=0;align=left;spacingLeft=6;" parent="Bh2odM-sxEUb7IFI-Dxi-2" vertex="1">
          <mxGeometry x="30" y="180" width="220" height="30" as="geometry" />
        </mxCell>
        <mxCell id="Bh2odM-sxEUb7IFI-Dxi-3" value="" style="group" vertex="1" connectable="0" parent="1">
          <mxGeometry x="120" y="120" width="250" height="180" as="geometry" />
        </mxCell>
        <mxCell id="C-vyLk0tnHw3VtMMgP7b-23" value="T_USER" style="shape=table;startSize=30;container=1;collapsible=1;childLayout=tableLayout;fixedRows=1;rowLines=0;fontStyle=1;align=center;resizeLast=1;" parent="Bh2odM-sxEUb7IFI-Dxi-3" vertex="1">
          <mxGeometry width="250" height="180" as="geometry" />
        </mxCell>
        <mxCell id="C-vyLk0tnHw3VtMMgP7b-24" value="" style="shape=partialRectangle;collapsible=0;dropTarget=0;pointerEvents=0;fillColor=none;points=[[0,0.5],[1,0.5]];portConstraint=eastwest;top=0;left=0;right=0;bottom=1;" parent="C-vyLk0tnHw3VtMMgP7b-23" vertex="1">
          <mxGeometry y="30" width="250" height="30" as="geometry" />
        </mxCell>
        <mxCell id="C-vyLk0tnHw3VtMMgP7b-25" value="PK" style="shape=partialRectangle;overflow=hidden;connectable=0;fillColor=none;top=0;left=0;bottom=0;right=0;fontStyle=1;" parent="C-vyLk0tnHw3VtMMgP7b-24" vertex="1">
          <mxGeometry width="30" height="30" as="geometry">
            <mxRectangle width="30" height="30" as="alternateBounds" />
          </mxGeometry>
        </mxCell>
        <mxCell id="C-vyLk0tnHw3VtMMgP7b-26" value="id VARCHAR(255)" style="shape=partialRectangle;overflow=hidden;connectable=0;fillColor=none;top=0;left=0;bottom=0;right=0;align=left;spacingLeft=6;fontStyle=5;" parent="C-vyLk0tnHw3VtMMgP7b-24" vertex="1">
          <mxGeometry x="30" width="220" height="30" as="geometry">
            <mxRectangle width="220" height="30" as="alternateBounds" />
          </mxGeometry>
        </mxCell>
        <mxCell id="C-vyLk0tnHw3VtMMgP7b-27" value="" style="shape=partialRectangle;collapsible=0;dropTarget=0;pointerEvents=0;fillColor=none;points=[[0,0.5],[1,0.5]];portConstraint=eastwest;top=0;left=0;right=0;bottom=0;" parent="C-vyLk0tnHw3VtMMgP7b-23" vertex="1">
          <mxGeometry y="60" width="250" height="30" as="geometry" />
        </mxCell>
        <mxCell id="C-vyLk0tnHw3VtMMgP7b-28" value="" style="shape=partialRectangle;overflow=hidden;connectable=0;fillColor=none;top=0;left=0;bottom=0;right=0;" parent="C-vyLk0tnHw3VtMMgP7b-27" vertex="1">
          <mxGeometry width="30" height="30" as="geometry">
            <mxRectangle width="30" height="30" as="alternateBounds" />
          </mxGeometry>
        </mxCell>
        <mxCell id="C-vyLk0tnHw3VtMMgP7b-29" value="FAKENMAE VARCHAR(255)" style="shape=partialRectangle;overflow=hidden;connectable=0;fillColor=none;top=0;left=0;bottom=0;right=0;align=left;spacingLeft=6;" parent="C-vyLk0tnHw3VtMMgP7b-27" vertex="1">
          <mxGeometry x="30" width="220" height="30" as="geometry">
            <mxRectangle width="220" height="30" as="alternateBounds" />
          </mxGeometry>
        </mxCell>
        <mxCell id="4BMQe9FEXwNOjTHVbdON-3" value="PASSWD VARCHAR(255)" style="shape=partialRectangle;overflow=hidden;connectable=0;fillColor=none;top=0;left=0;bottom=0;right=0;align=left;spacingLeft=6;" parent="Bh2odM-sxEUb7IFI-Dxi-3" vertex="1">
          <mxGeometry x="30" y="90" width="220" height="30" as="geometry" />
        </mxCell>
        <mxCell id="4BMQe9FEXwNOjTHVbdON-14" value="" style="endArrow=none;html=1;rounded=0;entryX=0.117;entryY=0.943;entryDx=0;entryDy=0;entryPerimeter=0;" parent="Bh2odM-sxEUb7IFI-Dxi-3" target="C-vyLk0tnHw3VtMMgP7b-27" edge="1">
          <mxGeometry width="50" height="50" relative="1" as="geometry">
            <mxPoint x="29" y="180" as="sourcePoint" />
            <mxPoint x="230" y="140" as="targetPoint" />
          </mxGeometry>
        </mxCell>
        <mxCell id="4BMQe9FEXwNOjTHVbdON-15" value="cookie VARCHAR(255)" style="shape=partialRectangle;overflow=hidden;connectable=0;fillColor=none;top=0;left=0;bottom=0;right=0;align=left;spacingLeft=6;" parent="Bh2odM-sxEUb7IFI-Dxi-3" vertex="1">
          <mxGeometry x="30" y="120" width="220" height="30" as="geometry" />
        </mxCell>
        <mxCell id="4BMQe9FEXwNOjTHVbdON-16" value="USERPIC VARCHAR(255)" style="shape=partialRectangle;overflow=hidden;connectable=0;fillColor=none;top=0;left=0;bottom=0;right=0;align=left;spacingLeft=6;" parent="Bh2odM-sxEUb7IFI-Dxi-3" vertex="1">
          <mxGeometry x="30" y="150" width="220" height="30" as="geometry" />
        </mxCell>
        <mxCell id="Bh2odM-sxEUb7IFI-Dxi-4" value="" style="group" vertex="1" connectable="0" parent="1">
          <mxGeometry x="490" y="390" width="251" height="250" as="geometry" />
        </mxCell>
        <mxCell id="4BMQe9FEXwNOjTHVbdON-30" value="TALK" style="shape=table;startSize=30;container=1;collapsible=1;childLayout=tableLayout;fixedRows=1;rowLines=0;fontStyle=1;align=center;resizeLast=1;" parent="Bh2odM-sxEUb7IFI-Dxi-4" vertex="1">
          <mxGeometry width="250" height="250" as="geometry" />
        </mxCell>
        <mxCell id="4BMQe9FEXwNOjTHVbdON-31" value="" style="shape=partialRectangle;collapsible=0;dropTarget=0;pointerEvents=0;fillColor=none;points=[[0,0.5],[1,0.5]];portConstraint=eastwest;top=0;left=0;right=0;bottom=1;" parent="4BMQe9FEXwNOjTHVbdON-30" vertex="1">
          <mxGeometry y="30" width="250" height="30" as="geometry" />
        </mxCell>
        <mxCell id="4BMQe9FEXwNOjTHVbdON-32" value="PK" style="shape=partialRectangle;overflow=hidden;connectable=0;fillColor=none;top=0;left=0;bottom=0;right=0;fontStyle=1;" parent="4BMQe9FEXwNOjTHVbdON-31" vertex="1">
          <mxGeometry width="30" height="30" as="geometry">
            <mxRectangle width="30" height="30" as="alternateBounds" />
          </mxGeometry>
        </mxCell>
        <mxCell id="4BMQe9FEXwNOjTHVbdON-33" value="TIME VARCHAR(255)" style="shape=partialRectangle;overflow=hidden;connectable=0;fillColor=none;top=0;left=0;bottom=0;right=0;align=left;spacingLeft=6;fontStyle=5;" parent="4BMQe9FEXwNOjTHVbdON-31" vertex="1">
          <mxGeometry x="30" width="220" height="30" as="geometry">
            <mxRectangle width="220" height="30" as="alternateBounds" />
          </mxGeometry>
        </mxCell>
        <mxCell id="4BMQe9FEXwNOjTHVbdON-34" value="" style="shape=partialRectangle;collapsible=0;dropTarget=0;pointerEvents=0;fillColor=none;points=[[0,0.5],[1,0.5]];portConstraint=eastwest;top=0;left=0;right=0;bottom=0;" parent="4BMQe9FEXwNOjTHVbdON-30" vertex="1">
          <mxGeometry y="60" width="250" height="30" as="geometry" />
        </mxCell>
        <mxCell id="4BMQe9FEXwNOjTHVbdON-35" value="" style="shape=partialRectangle;overflow=hidden;connectable=0;fillColor=none;top=0;left=0;bottom=0;right=0;" parent="4BMQe9FEXwNOjTHVbdON-34" vertex="1">
          <mxGeometry width="30" height="30" as="geometry">
            <mxRectangle width="30" height="30" as="alternateBounds" />
          </mxGeometry>
        </mxCell>
        <mxCell id="4BMQe9FEXwNOjTHVbdON-36" value="CHATROOMNAME VARCHAR(255)" style="shape=partialRectangle;overflow=hidden;connectable=0;fillColor=none;top=0;left=0;bottom=0;right=0;align=left;spacingLeft=6;" parent="4BMQe9FEXwNOjTHVbdON-34" vertex="1">
          <mxGeometry x="30" width="220" height="30" as="geometry">
            <mxRectangle width="220" height="30" as="alternateBounds" />
          </mxGeometry>
        </mxCell>
        <mxCell id="4BMQe9FEXwNOjTHVbdON-37" value="SENDERID VARCHAR(255)" style="shape=partialRectangle;overflow=hidden;connectable=0;fillColor=none;top=0;left=0;bottom=0;right=0;align=left;spacingLeft=6;" parent="Bh2odM-sxEUb7IFI-Dxi-4" vertex="1">
          <mxGeometry x="30" y="90" width="220" height="30" as="geometry" />
        </mxCell>
        <mxCell id="4BMQe9FEXwNOjTHVbdON-38" value="" style="endArrow=none;html=1;rounded=0;entryX=0.117;entryY=0.943;entryDx=0;entryDy=0;entryPerimeter=0;" parent="Bh2odM-sxEUb7IFI-Dxi-4" target="4BMQe9FEXwNOjTHVbdON-34" edge="1">
          <mxGeometry width="50" height="50" relative="1" as="geometry">
            <mxPoint x="29" y="250" as="sourcePoint" />
            <mxPoint x="230" y="140" as="targetPoint" />
          </mxGeometry>
        </mxCell>
        <mxCell id="4BMQe9FEXwNOjTHVbdON-39" value="SENDERNAME VARCHAR(255)" style="shape=partialRectangle;overflow=hidden;connectable=0;fillColor=none;top=0;left=0;bottom=0;right=0;align=left;spacingLeft=6;" parent="Bh2odM-sxEUb7IFI-Dxi-4" vertex="1">
          <mxGeometry x="31" y="120" width="220" height="30" as="geometry" />
        </mxCell>
        <mxCell id="4BMQe9FEXwNOjTHVbdON-40" value="SENDERPIC VARCHAR(255)" style="shape=partialRectangle;overflow=hidden;connectable=0;fillColor=none;top=0;left=0;bottom=0;right=0;align=left;spacingLeft=6;" parent="Bh2odM-sxEUb7IFI-Dxi-4" vertex="1">
          <mxGeometry x="30" y="150" width="220" height="30" as="geometry" />
        </mxCell>
        <mxCell id="4BMQe9FEXwNOjTHVbdON-41" value="CONTEXT TEXT" style="shape=partialRectangle;overflow=hidden;connectable=0;fillColor=none;top=0;left=0;bottom=0;right=0;align=left;spacingLeft=6;" parent="Bh2odM-sxEUb7IFI-Dxi-4" vertex="1">
          <mxGeometry x="30" y="180" width="220" height="30" as="geometry" />
        </mxCell>
        <mxCell id="4BMQe9FEXwNOjTHVbdON-42" value="TYPE VARCHAR(255)" style="shape=partialRectangle;overflow=hidden;connectable=0;fillColor=none;top=0;left=0;bottom=0;right=0;align=left;spacingLeft=6;" parent="Bh2odM-sxEUb7IFI-Dxi-4" vertex="1">
          <mxGeometry x="31" y="210" width="220" height="30" as="geometry" />
        </mxCell>
        <mxCell id="Bh2odM-sxEUb7IFI-Dxi-5" value="" style="group" vertex="1" connectable="0" parent="1">
          <mxGeometry x="160" y="330" width="251" height="300" as="geometry" />
        </mxCell>
        <mxCell id="4BMQe9FEXwNOjTHVbdON-43" value="GAME" style="shape=table;startSize=30;container=1;collapsible=1;childLayout=tableLayout;fixedRows=1;rowLines=0;fontStyle=1;align=center;resizeLast=1;" parent="Bh2odM-sxEUb7IFI-Dxi-5" vertex="1">
          <mxGeometry width="250" height="300" as="geometry" />
        </mxCell>
        <mxCell id="4BMQe9FEXwNOjTHVbdON-44" value="" style="shape=partialRectangle;collapsible=0;dropTarget=0;pointerEvents=0;fillColor=none;points=[[0,0.5],[1,0.5]];portConstraint=eastwest;top=0;left=0;right=0;bottom=1;" parent="4BMQe9FEXwNOjTHVbdON-43" vertex="1">
          <mxGeometry y="30" width="250" height="30" as="geometry" />
        </mxCell>
        <mxCell id="4BMQe9FEXwNOjTHVbdON-45" value="PK" style="shape=partialRectangle;overflow=hidden;connectable=0;fillColor=none;top=0;left=0;bottom=0;right=0;fontStyle=1;" parent="4BMQe9FEXwNOjTHVbdON-44" vertex="1">
          <mxGeometry width="30" height="30" as="geometry">
            <mxRectangle width="30" height="30" as="alternateBounds" />
          </mxGeometry>
        </mxCell>
        <mxCell id="4BMQe9FEXwNOjTHVbdON-46" value="ID VARCHAR(255)" style="shape=partialRectangle;overflow=hidden;connectable=0;fillColor=none;top=0;left=0;bottom=0;right=0;align=left;spacingLeft=6;fontStyle=5;" parent="4BMQe9FEXwNOjTHVbdON-44" vertex="1">
          <mxGeometry x="30" width="220" height="30" as="geometry">
            <mxRectangle width="220" height="30" as="alternateBounds" />
          </mxGeometry>
        </mxCell>
        <mxCell id="4BMQe9FEXwNOjTHVbdON-47" value="" style="shape=partialRectangle;collapsible=0;dropTarget=0;pointerEvents=0;fillColor=none;points=[[0,0.5],[1,0.5]];portConstraint=eastwest;top=0;left=0;right=0;bottom=0;" parent="4BMQe9FEXwNOjTHVbdON-43" vertex="1">
          <mxGeometry y="60" width="250" height="30" as="geometry" />
        </mxCell>
        <mxCell id="4BMQe9FEXwNOjTHVbdON-48" value="" style="shape=partialRectangle;overflow=hidden;connectable=0;fillColor=none;top=0;left=0;bottom=0;right=0;" parent="4BMQe9FEXwNOjTHVbdON-47" vertex="1">
          <mxGeometry width="30" height="30" as="geometry">
            <mxRectangle width="30" height="30" as="alternateBounds" />
          </mxGeometry>
        </mxCell>
        <mxCell id="4BMQe9FEXwNOjTHVbdON-49" value="CHATROOM VARCHAR(255)" style="shape=partialRectangle;overflow=hidden;connectable=0;fillColor=none;top=0;left=0;bottom=0;right=0;align=left;spacingLeft=6;" parent="4BMQe9FEXwNOjTHVbdON-47" vertex="1">
          <mxGeometry x="30" width="220" height="30" as="geometry">
            <mxRectangle width="220" height="30" as="alternateBounds" />
          </mxGeometry>
        </mxCell>
        <mxCell id="4BMQe9FEXwNOjTHVbdON-50" value="TIME VARCHAR(255)" style="shape=partialRectangle;overflow=hidden;connectable=0;fillColor=none;top=0;left=0;bottom=0;right=0;align=left;spacingLeft=6;" parent="Bh2odM-sxEUb7IFI-Dxi-5" vertex="1">
          <mxGeometry x="30" y="90" width="220" height="30" as="geometry" />
        </mxCell>
        <mxCell id="4BMQe9FEXwNOjTHVbdON-51" value="" style="endArrow=none;html=1;rounded=0;entryX=0.117;entryY=0.943;entryDx=0;entryDy=0;entryPerimeter=0;" parent="Bh2odM-sxEUb7IFI-Dxi-5" target="4BMQe9FEXwNOjTHVbdON-47" edge="1">
          <mxGeometry width="50" height="50" relative="1" as="geometry">
            <mxPoint x="29" y="300" as="sourcePoint" />
            <mxPoint x="230" y="140" as="targetPoint" />
          </mxGeometry>
        </mxCell>
        <mxCell id="4BMQe9FEXwNOjTHVbdON-52" value="GAMEID INT" style="shape=partialRectangle;overflow=hidden;connectable=0;fillColor=none;top=0;left=0;bottom=0;right=0;align=left;spacingLeft=6;" parent="Bh2odM-sxEUb7IFI-Dxi-5" vertex="1">
          <mxGeometry x="31" y="120" width="220" height="30" as="geometry" />
        </mxCell>
        <mxCell id="4BMQe9FEXwNOjTHVbdON-53" value="WINNER INT" style="shape=partialRectangle;overflow=hidden;connectable=0;fillColor=none;top=0;left=0;bottom=0;right=0;align=left;spacingLeft=6;" parent="Bh2odM-sxEUb7IFI-Dxi-5" vertex="1">
          <mxGeometry x="30" y="150" width="220" height="30" as="geometry" />
        </mxCell>
        <mxCell id="4BMQe9FEXwNOjTHVbdON-54" value="TURN INT" style="shape=partialRectangle;overflow=hidden;connectable=0;fillColor=none;top=0;left=0;bottom=0;right=0;align=left;spacingLeft=6;" parent="Bh2odM-sxEUb7IFI-Dxi-5" vertex="1">
          <mxGeometry x="30" y="180" width="220" height="30" as="geometry" />
        </mxCell>
        <mxCell id="4BMQe9FEXwNOjTHVbdON-55" value="BOARD TEXT" style="shape=partialRectangle;overflow=hidden;connectable=0;fillColor=none;top=0;left=0;bottom=0;right=0;align=left;spacingLeft=6;" parent="Bh2odM-sxEUb7IFI-Dxi-5" vertex="1">
          <mxGeometry x="31" y="210" width="220" height="30" as="geometry" />
        </mxCell>
        <mxCell id="4BMQe9FEXwNOjTHVbdON-56" value="PLAYERS VARCHAR(255)" style="shape=partialRectangle;overflow=hidden;connectable=0;fillColor=none;top=0;left=0;bottom=0;right=0;align=left;spacingLeft=6;" parent="Bh2odM-sxEUb7IFI-Dxi-5" vertex="1">
          <mxGeometry x="30" y="240" width="220" height="30" as="geometry" />
        </mxCell>
        <mxCell id="4BMQe9FEXwNOjTHVbdON-57" value="ISEND INT" style="shape=partialRectangle;overflow=hidden;connectable=0;fillColor=none;top=0;left=0;bottom=0;right=0;align=left;spacingLeft=6;" parent="Bh2odM-sxEUb7IFI-Dxi-5" vertex="1">
          <mxGeometry x="31" y="270" width="220" height="30" as="geometry" />
        </mxCell>
        <mxCell id="Bh2odM-sxEUb7IFI-Dxi-6" value="" style="edgeStyle=entityRelationEdgeStyle;fontSize=12;html=1;endArrow=ERoneToMany;rounded=0;" edge="1" parent="1" source="C-vyLk0tnHw3VtMMgP7b-23" target="4BMQe9FEXwNOjTHVbdON-18">
          <mxGeometry width="100" height="100" relative="1" as="geometry">
            <mxPoint x="370" y="400" as="sourcePoint" />
            <mxPoint x="470" y="300" as="targetPoint" />
          </mxGeometry>
        </mxCell>
        <mxCell id="Bh2odM-sxEUb7IFI-Dxi-7" value="" style="edgeStyle=entityRelationEdgeStyle;fontSize=12;html=1;endArrow=ERzeroToMany;endFill=1;rounded=0;exitX=0.5;exitY=1;exitDx=0;exitDy=0;" edge="1" parent="1" source="4BMQe9FEXwNOjTHVbdON-18" target="4BMQe9FEXwNOjTHVbdON-30">
          <mxGeometry width="100" height="100" relative="1" as="geometry">
            <mxPoint x="370" y="500" as="sourcePoint" />
            <mxPoint x="470" y="400" as="targetPoint" />
          </mxGeometry>
        </mxCell>
        <mxCell id="Bh2odM-sxEUb7IFI-Dxi-8" value="" style="edgeStyle=entityRelationEdgeStyle;fontSize=12;html=1;endArrow=ERoneToMany;rounded=0;" edge="1" parent="1" target="4BMQe9FEXwNOjTHVbdON-43">
          <mxGeometry width="100" height="100" relative="1" as="geometry">
            <mxPoint x="370" y="240" as="sourcePoint" />
            <mxPoint x="470" y="300" as="targetPoint" />
          </mxGeometry>
        </mxCell>
      </root>
    </mxGraphModel>
  </diagram>
</mxfile>
